#!OML:ASF F:\VICON\USERDATA\INSTALL\rory3\rory3.ASF
:FULLY-SPECIFIED
:DEGREES
909
root -1.29872 25.1421 0.62536 0.703354 2.3524 2.73619
lowerback 6.95336 -0.0945048 -0.813729
upperback 2.46141 -0.137366 2.21144
thorax -1.35149 -0.0764052 2.74731
lowerneck -11.1029 1.60671 -9.73841
upperneck 43.3609 5.77506 -0.173265
head 17.7849 0.781259 2.68762
rclavicle 1.07344e-014 -6.36111e-015
rhumerus -31.1123 -4.22703 -78.3897
rradius 35.4551
rwrist 16.9468
rhand -18.6322 0.976513
rfingers 7.12502
rthumb 7.66015 -28.8648
lclavicle 1.07344e-014 -6.36111e-015
lhumerus -32.4834 12.3785 80.3619
lradius 29.9396
lwrist -5.03908
lhand -8.19442 28.0166
lfingers 7.12502
lthumb 17.7218 57.2291
rfemur -13.738 -3.48745 24.1396
rtibia 29.1131
rfoot -12.2431 -0.661456
rtoes 16.8421
lfemur -39.4382 2.00992 -17.6342
ltibia 82.8364
lfoot -8.06829 -11.5639
ltoes -14.1537
910
root -1.29631 25.128 0.666058 0.723105 2.33062 2.77164
lowerback 6.95626 -0.0797581 -0.729716
upperback 2.44081 -0.111807 2.21358
thorax -1.37594 -0.0630485 2.70015
lowerneck -11.0898 1.59833 -9.76324
upperneck 43.2975 5.77465 -0.201191
head 17.7452 0.778109 2.67699
rclavicle 7.15625e-015 -3.18055e-015
rhumerus -31.2163 -4.07662 -78.3802
rradius 35.4747
rwrist 16.8353
rhand -18.7254 1.07082
rfingers 7.12502
rthumb 7.57021 -28.7737
lclavicle 7.15625e-015 -3.18055e-015
lhumerus -32.4908 12.2188 80.3221
lradius 30.039
lwrist -4.93278
lhand -8.21837 27.9145
lfingers 7.12502
lthumb 17.6987 57.129
rfemur -13.8123 -3.53513 24.0958
rtibia 29.5654
rfoot -12.616 -0.424679
rtoes 16.7474
lfemur -39.4518 1.78693 -17.7672
ltibia 80.6733
lfoot -7.17687 -11.4303
ltoes -13.6158
911
root -1.2935 25.1089 0.704593 0.798914 2.29725 2.8148
lowerback 6.95218 -0.0662656 -0.642359
upperback 2.39629 -0.0877073 2.19741
thorax -1.42109 -0.0500493 2.63231
lowerneck -11.0673 1.59546 -9.76033
upperneck 43.2523 5.76942 -0.218155
head 17.7138 0.777861 2.66599
rclavicle -1.19271e-015 3.89618e-014
rhumerus -31.2556 -3.86496 -78.3746
rradius 35.4694
rwrist 17.2547
rhand -18.826 0.700028
rfingers 7.12502
rthumb 7.4731 -29.148
lclavicle -1.19271e-015 3.89618e-014
lhumerus -32.482 12.0966 80.2495
lradius 30.0682
lwrist -4.90556
lhand -8.47867 27.478
lfingers 7.12502
lthumb 17.4482 56.7149
rfemur -13.9842 -3.56442 24.0494
rtibia 30.056
rfoot -12.9204 -0.211756
rtoes 16.8543
lfemur -39.5111 1.56695 -17.9182
ltibia 78.4567
lfoot -6.12973 -11.2024
ltoes -14.0591
912
root -1.29038 25.0925 0.74525 0.875428 2.20871 2.80543
lowerback 6.85399 -0.0683518 -0.494257
upperback 2.43638 -0.0823201 2.17631
thorax -1.32595 -0.0480432 2.52582
lowerneck -11.2483 1.606 -9.78605
upperneck 43.2657 5.7996 -0.168325
head 17.7631 0.787769 2.70408
rclavicle 1.35174e-014 -7.95139e-015
rhumerus -31.1334 -3.86571 -78.3481
rradius 35.4259
rwrist 18.4235
rhand -18.7797 0.127397
rfingers 7.12502
rthumb 7.51784 -29.719
lclavicle 1.35174e-014 -7.95139e-015
lhumerus -32.3741 12.1024 80.1168
lradius 30.0995
lwrist -4.99859
lhand -8.73506 27.5001
lfingers 7.12502
lthumb 17.2015 56.7587
rfemur -14.1707 -3.55283 24.0575
rtibia 30.5924
rfoot -13.2425 -0.0192036
rtoes 17.2444
lfemur -39.4889 1.34409 -18.0154
ltibia 76.1695
lfoot -4.96275 -10.8662
ltoes -15.3338
913
root -1.28715 25.0743 0.785868 0.893786 2.11845 2.77228
lowerback 6.85087 -0.0356643 -0.349651
upperback 2.43297 -0.029193 2.18648
thorax -1.33045 -0.0211319 2.45061
lowerneck -11.2889 1.58765 -9.85669
upperneck 43.2654 5.77823 -0.119198
head 17.7702 0.773993 2.73699
rclavicle -2.18663e-014 1.51076e-014
rhumerus -31.1972 -3.93414 -78.2422
rradius 35.3528
rwrist 19.0136
rhand -18.6707 0.0516093
rfingers 7.12502
rthumb 7.62301 -29.791
lclavicle -2.18663e-014 1.51076e-014
lhumerus -32.3371 12.0102 80.04
lradius 30.1233
lwrist -5.10454
lhand -8.62306 27.621
lfingers 7.12502
lthumb 17.3092 56.8702
rfemur -14.346 -3.51964 24.0863
rtibia 31.1928
rfoot -13.6003 0.190394
rtoes 16.9986
lfemur -39.3322 1.10092 -18.0651
ltibia 73.8169
lfoot -3.568 -10.5577
ltoes -16.2857
914
root -1.28484 25.0527 0.824855 0.895709 2.05705 2.7865
lowerback 6.96389 -0.013641 -0.301767
upperback 2.35034 0.00626087 2.21857
thorax -1.47992 -0.0018772 2.45468
lowerneck -11.2783 1.58246 -9.90501
upperneck 43.3515 5.79544 -0.127041
head 17.8188 0.76752 2.74709
rclavicle 3.37934e-015 3.18055e-015
rhumerus -31.2898 -3.87979 -78.1481
rradius 35.1695
rwrist 18.8777
rhand -18.5946 0.341111
rfingers 7.12502
rthumb 7.69642 -29.4988
lclavicle 3.37934e-015 3.18055e-015
lhumerus -32.3699 11.9334 79.9751
lradius 30.1006
lwrist -5.22439
lhand -8.43884 27.4163
lfingers 7.12502
lthumb 17.4866 56.6498
rfemur -14.5377 -3.48 24.0737
rtibia 31.818
rfoot -13.9614 0.266385
rtoes 16.4322
lfemur -39.1477 0.857524 -18.1446
ltibia 71.4067
lfoot -1.9451 -10.3361
ltoes -16.6842
915
root -1.28191 25.026 0.864387 0.892953 2.00577 2.91009
lowerback 6.98809 0.0129789 -0.380333
upperback 2.35 0.0369505 2.23885
thorax -1.49507 0.0133828 2.51758
lowerneck -11.3923 1.59577 -9.84055
upperneck 43.4506 5.86189 -0.213865
head 17.9133 0.785304 2.71322
rclavicle -8.54774e-015 1.43125e-014
rhumerus -31.2177 -3.78385 -78.0866
rradius 34.9376
rwrist 18.3824
rhand -18.8475 0.617491
rfingers 7.12502
rthumb 7.45232 -29.2312
lclavicle -8.54774e-015 1.43125e-014
lhumerus -32.2911 11.8826 79.981
lradius 30.1146
lwrist -5.18743
lhand -8.47509 27.3943
lfingers 7.12502
lthumb 17.4517 56.6309
rfemur -14.7103 -3.48915 23.9424
rtibia 32.4552
rfoot -14.2568 0.364971
rtoes 16.8173
lfemur -38.8931 0.548746 -18.3433
ltibia 68.9483
lfoot -0.239186 -10.179
ltoes -16.7195
916
root -1.27889 24.9972 0.904556 0.887637 1.9302 2.91649
lowerback 6.9642 0.033931 -0.340988
upperback 2.37568 0.0675639 2.27903
thorax -1.45678 0.0281781 2.53432
lowerneck -11.3381 1.59994 -9.8446
upperneck 43.3603 5.86833 -0.25196
head 17.8465 0.789426 2.69322
rclavicle 0 -1.59028e-014
rhumerus -31.1966 -3.71622 -78.0774
rradius 34.7361
rwrist 17.6749
rhand -19.4147 1.20475
rfingers 7.12502
rthumb 6.90487 -28.6626
lclavicle 0 -1.59028e-014
lhumerus -32.2242 11.8951 79.9437
lradius 30.1689
lwrist -5.113
lhand -8.42672 27.6523
lfingers 7.12502
lthumb 17.4982 56.8848
rfemur -14.8666 -3.48976 23.9413
rtibia 33.0867
rfoot -14.6135 0.575246
rtoes 17.0475
lfemur -38.6062 0.264386 -18.3941
ltibia 66.4748
lfoot 1.48762 -10.0626
ltoes -17.0752
917
root -1.2772 24.9714 0.947274 0.923286 1.8149 2.88294
lowerback 6.91885 0.0559528 -0.299189
upperback 2.33709 0.100919 2.33441
thorax -1.47294 0.0451113 2.56527
lowerneck -11.2347 1.57842 -9.92491
upperneck 43.2997 5.85096 -0.286541
head 17.7856 0.770582 2.68355
rclavicle -6.95746e-015 4.77083e-015
rhumerus -31.2093 -3.64229 -78.0167
rradius 34.5326
rwrist 17.1641
rhand -19.6779 1.73084
rfingers 7.12502
rthumb 6.65081 -28.1447
lclavicle -6.95746e-015 4.77083e-015
lhumerus -32.2965 11.9645 79.8073
lradius 30.2336
lwrist -5.17821
lhand -8.2787 27.6389
lfingers 7.12502
lthumb 17.6407 56.8587
rfemur -15.061 -3.5001 23.9974
rtibia 33.6929
rfoot -15.0326 0.906867
rtoes 17.032
lfemur -38.2937 0.00349598 -18.3709
ltibia 63.9674
lfoot 3.18196 -10.0092
ltoes -17.9564
918
root -1.27235 24.9499 0.989433 0.966203 1.82352 2.94937
lowerback 6.87329 0.0359311 -0.279172
upperback 2.32523 0.0754478 2.33742
thorax -1.45865 0.0323996 2.55902
lowerneck -11.3027 1.57313 -9.92451
upperneck 43.3418 5.88223 -0.346266
head 17.8324 0.770992 2.66421
rclavicle -2.48481e-014 0
rhumerus -31.1916 -3.58685 -77.938
rradius 34.467
rwrist 17.0499
rhand -19.5879 1.50474
rfingers 7.12502
rthumb 6.73762 -28.3681
lclavicle -2.48481e-014 0
lhumerus -32.3049 12.0394 79.656
lradius 30.1855
lwrist -5.3251
lhand -8.43078 27.3797
lfingers 7.12502
lthumb 17.4943 56.6126
rfemur -15.2529 -3.61143 23.9369
rtibia 34.2911
rfoot -15.4977 1.17724
rtoes 16.7567
lfemur -37.9466 -0.43538 -18.4645
ltibia 61.4283
lfoot 4.76348 -10.0276
ltoes -18.6925
919
root -1.26641 24.928 1.03269 1.01249 1.82517 3.01213
lowerback 6.7775 0.0117037 -0.210205
upperback 2.33722 0.0461221 2.31589
thorax -1.39173 0.0173999 2.4998
lowerneck -11.2875 1.60395 -9.83609
upperneck 43.3173 5.92613 -0.413392
head 17.8172 0.795944 2.62381
rclavicle -6.75868e-015 9.54166e-015
rhumerus -31.148 -3.67661 -77.8667
rradius 34.4137
rwrist 17.283
rhand -19.3913 1.33854
rfingers 7.12502
rthumb 6.92743 -28.5281
lclavicle -6.75868e-015 9.54166e-015
lhumerus -32.3553 11.9479 79.5557
lradius 30.2991
lwrist -5.29525
lhand -8.70634 27.7194
lfingers 7.12502
lthumb 17.2291 56.9756
rfemur -15.4381 -3.67335 23.8772
rtibia 34.8966
rfoot -15.9001 1.34306
rtoes 16.1763
lfemur -37.5827 -0.864272 -18.574
ltibia 58.9276
lfoot 6.14561 -10.1915
ltoes -19.7519
920
root -1.2631 24.9008 1.07558 1.03228 1.63356 3.05711
lowerback 6.76008 0.0621511 -0.183908
upperback 2.3108 0.11472 2.29561
thorax -1.41231 0.0519893 2.4586
lowerneck -11.1975 1.64889 -9.65893
upperneck 43.2349 5.98488 -0.564807
head 17.7547 0.835042 2.52775
rclavicle -4.57205e-015 -9.54166e-015
rhumerus -31.1305 -3.89999 -77.7691
rradius 34.2847
rwrist 17.6232
rhand -19.3115 1.4708
rfingers 7.12502
rthumb 7.00446 -28.3933
lclavicle -4.57205e-015 -9.54166e-015
lhumerus -32.4564 11.7944 79.4537
lradius 30.4502
lwrist -5.1344
lhand -8.65315 28.3682
lfingers 7.12502
lthumb 17.2803 57.6199
rfemur -15.6273 -3.50865 23.845
rtibia 35.5482
rfoot -16.2553 1.48752
rtoes 15.9336
lfemur -37.1468 -1.0735 -18.6525
ltibia 56.4907
lfoot 7.4528 -10.486
ltoes -20.5329
921
root -1.26068 24.8687 1.11591 1.10006 1.37541 3.00803
lowerback 6.66022 0.128659 -0.134251
upperback 2.34215 0.205467 2.34934
thorax -1.32858 0.0964973 2.47885
lowerneck -11.3325 1.63018 -9.62505
upperneck 43.1604 6.01891 -0.707645
head 17.7563 0.835961 2.46354
rclavicle -9.74045e-015 -1.59028e-014
rhumerus -30.9897 -4.12349 -77.6123
rradius 34.2057
rwrist 18.168
rhand -19.2045 1.35148
rfingers 7.12502
rthumb 7.10778 -28.5092
lclavicle -9.74045e-015 -1.59028e-014
lhumerus -32.3825 11.9312 79.3708
lradius 30.4174
lwrist -5.12988
lhand -8.66581 28.5163
lfingers 7.12502
lthumb 17.2681 57.7691
rfemur -15.8853 -3.27254 23.9304
rtibia 36.1967
rfoot -16.6595 1.61115
rtoes 16.0903
lfemur -36.7844 -1.24417 -18.5977
ltibia 54.1268
lfoot 8.83216 -10.7117
ltoes -20.2831
922
root -1.25972 24.8385 1.15563 1.255 1.13555 3.05308
lowerback 6.455 0.182877 -0.188098
upperback 2.37137 0.271399 2.3662
thorax -1.1877 0.128133 2.52151
lowerneck -11.4723 1.61034 -9.7333
upperneck 43.1238 6.002 -0.628419
head 17.764 0.821061 2.51915
rclavicle 1.74931e-014 6.36111e-015
rhumerus -30.7977 -4.48752 -77.448
rradius 34.1234
rwrist 19.0832
rhand -19.1894 1.11462
rfingers 7.12502
rthumb 7.12229 -28.7455
lclavicle 1.74931e-014 6.36111e-015
lhumerus -32.3229 12.0995 79.2567
lradius 30.4246
lwrist -5.18184
lhand -8.79039 28.2734
lfingers 7.12502
lthumb 17.1482 57.5367
rfemur -16.2294 -3.0709 23.9277
rtibia 36.833
rfoot -17.1134 1.69164
rtoes 16.4227
lfemur -36.4964 -1.37793 -18.633
ltibia 51.7829
lfoot 10.2994 -11.012
ltoes -19.1442
923
root -1.25782 24.8126 1.20025 1.27767 0.933095 3.19571
lowerback 6.34244 0.224018 -0.310704
upperback 2.38132 0.316596 2.32968
thorax -1.11737 0.149861 2.54961
lowerneck -11.3774 1.6625 -9.71571
upperneck 43.1167 6.02607 -0.550154
head 17.726 0.847043 2.55308
rclavicle -5.1684e-015 3.18055e-015
rhumerus -30.6255 -4.90851 -77.3345
rradius 33.7794
rwrist 19.4488
rhand -19.3239 1.31287
rfingers 7.12502
rthumb 6.99247 -28.5516
lclavicle -5.1684e-015 3.18055e-015
lhumerus -32.4267 12.2116 79.0894
lradius 30.5007
lwrist -5.23292
lhand -8.86187 28.4451
lfingers 7.12502
lthumb 17.0794 57.7143
rfemur -16.3704 -2.87612 23.7994
rtibia 37.4147
rfoot -17.6288 1.83792
rtoes 17.122
lfemur -35.9987 -1.54178 -18.8063
ltibia 49.4735
lfoot 11.6437 -11.4004
ltoes -18.3075
